<svg xmlns="http://www.w3.org/2000/svg" xmlns:xlink="http://www.w3.org/1999/xlink" width="200"
  zoomAndPan="magnify" viewBox="0 0 150 225" height="300" preserveAspectRatio="xMidYMid meet"
  version="1.0">
  <defs>
    <g />
    <clipPath id="0f59af187f">
      <path
        d="M 119.964844 0 L 148.738281 0 L 148.738281 28.773438 L 119.964844 28.773438 Z M 119.964844 0 "
        clip-rule="nonzero" />
    </clipPath>
    <clipPath id="7117979ef3">
      <path
        d="M 134.351562 0 C 126.40625 0 119.964844 6.441406 119.964844 14.386719 C 119.964844 22.332031 126.40625 28.773438 134.351562 28.773438 C 142.296875 28.773438 148.738281 22.332031 148.738281 14.386719 C 148.738281 6.441406 142.296875 0 134.351562 0 Z M 134.351562 0 "
        clip-rule="nonzero" />
    </clipPath>
    <clipPath id="008d43560e">
      <path
        d="M 33.460938 121.179688 L 137.28125 121.179688 L 137.28125 225 L 33.460938 225 Z M 33.460938 121.179688 "
        clip-rule="nonzero" />
    </clipPath>
    <clipPath id="5a72b694cd">
      <path
        d="M 85.371094 121.179688 C 56.703125 121.179688 33.460938 144.421875 33.460938 173.089844 C 33.460938 201.757812 56.703125 225 85.371094 225 C 114.039062 225 137.28125 201.757812 137.28125 173.089844 C 137.28125 144.421875 114.039062 121.179688 85.371094 121.179688 Z M 85.371094 121.179688 "
        clip-rule="nonzero" />
    </clipPath>
    <clipPath id="c2b64e8a40">
      <path
        d="M 53.726562 141.445312 L 117.015625 141.445312 L 117.015625 204.734375 L 53.726562 204.734375 Z M 53.726562 141.445312 "
        clip-rule="nonzero" />
    </clipPath>
    <clipPath id="51ed538920">
      <path
        d="M 85.371094 141.445312 C 67.894531 141.445312 53.726562 155.613281 53.726562 173.089844 C 53.726562 190.566406 67.894531 204.734375 85.371094 204.734375 C 102.847656 204.734375 117.015625 190.566406 117.015625 173.089844 C 117.015625 155.613281 102.847656 141.445312 85.371094 141.445312 Z M 85.371094 141.445312 "
        clip-rule="nonzero" />
    </clipPath>
    <clipPath id="f69d9453b0">
      <path
        d="M 50.429688 50.425781 L 148.886719 50.425781 L 148.886719 116.066406 L 50.429688 116.066406 Z M 50.429688 50.425781 "
        clip-rule="nonzero" />
    </clipPath>
    <clipPath id="94d39c8941">
      <path
        d="M 33.460938 50.570312 L 72.84375 50.570312 L 72.84375 70.261719 L 33.460938 70.261719 Z M 33.460938 50.570312 "
        clip-rule="nonzero" />
    </clipPath>
  </defs>
  <rect x="-15" width="180" fill="transparent" y="-22.5" height="270" fill-opacity="1" />
  <rect x="-15" width="180" fill="transparent" y="-22.5" height="270" fill-opacity="1" />
  <g clip-path="url(#0f59af187f)">
    <g clip-path="url(#7117979ef3)" fill="#14b8a5">
      <path fill="#14b8a5" 
        d="M 119.964844 0 L 148.738281 0 L 148.738281 28.773438 L 119.964844 28.773438 Z M 119.964844 0 "
        fill-opacity="1" fill-rule="nonzero" />
    </g>
  </g>
  <g clip-path="url(#008d43560e)">
    <g clip-path="url(#5a72b694cd)">
      <path fill="#000000"
        d="M 33.460938 121.179688 L 137.28125 121.179688 L 137.28125 225 L 33.460938 225 Z M 33.460938 121.179688 "
        fill-opacity="1" fill-rule="nonzero" />
    </g>
  </g>
  <g clip-path="url(#c2b64e8a40)">
    <g clip-path="url(#51ed538920)">
      <path fill="#edeae9"
        d="M 53.726562 141.445312 L 117.015625 141.445312 L 117.015625 204.734375 L 53.726562 204.734375 Z M 53.726562 141.445312 "
        fill-opacity="1" fill-rule="nonzero" />
    </g>
  </g>
  <g clip-path="url(#f69d9453b0)">
    <path fill="#000000"
      d="M 50.460938 52.613281 L 50.460938 67.929688 C 50.460938 69.136719 51.4375 70.117188 52.644531 70.117188 L 117.785156 70.117188 C 124.878906 70.117188 131.074219 75.554688 131.351562 82.652344 C 131.644531 90.171875 125.6875 96.371094 118.246094 96.371094 C 117.039062 96.371094 116.058594 97.351562 116.058594 98.5625 L 116.058594 113.875 C 116.058594 115.097656 117.066406 116.066406 118.289062 116.066406 C 135.148438 116.039062 148.855469 101.328125 148.855469 83.246094 C 148.855469 65.148438 135.125 50.425781 118.246094 50.425781 L 52.644531 50.425781 C 51.4375 50.425781 50.460938 51.40625 50.460938 52.613281 Z M 50.460938 52.613281 "
      fill-opacity="1" fill-rule="nonzero" />
  </g>
  <g clip-path="url(#94d39c8941)">
    <path fill="#000000"
      d="M 72.890625 50.570312 C 72.890625 61.464844 64.0625 70.292969 53.167969 70.292969 C 42.273438 70.292969 33.476562 61.464844 33.476562 50.570312 Z M 72.890625 50.570312 "
      fill-opacity="1" fill-rule="nonzero" />
  </g>
  <g fill="#000000" fill-opacity="1">
    <g transform="translate(33.280185, 113.276465)">
      <g>
        <path
          d="M 7.71875 -12.5 C 9.71875 -12.5 11.335938 -12.070312 12.578125 -11.21875 C 13.828125 -10.363281 14.453125 -9.054688 14.453125 -7.296875 L 9.984375 -7.296875 C 9.984375 -8.679688 9.226562 -9.375 7.71875 -9.375 C 6.195312 -9.375 5.4375 -8.503906 5.4375 -6.765625 L 5.4375 -5.4375 C 5.4375 -3.707031 6.222656 -2.84375 7.796875 -2.84375 C 9.378906 -2.84375 10.171875 -3.554688 10.171875 -4.984375 L 14.453125 -4.984375 C 14.453125 -3.203125 13.828125 -1.878906 12.578125 -1.015625 C 11.335938 -0.148438 9.71875 0.28125 7.71875 0.28125 C 5.570312 0.28125 3.882812 -0.257812 2.65625 -1.34375 C 1.4375 -2.425781 0.828125 -4.015625 0.828125 -6.109375 C 0.828125 -8.210938 1.4375 -9.800781 2.65625 -10.875 C 3.882812 -11.957031 5.570312 -12.5 7.71875 -12.5 Z M 7.71875 -12.5 " />
      </g>
    </g>
  </g>
  <g fill="#000000" fill-opacity="1">
    <g transform="translate(48.724721, 113.276465)">
      <g>
        <path
          d="M 7.71875 -12.5 C 9.863281 -12.5 11.546875 -11.953125 12.765625 -10.859375 C 13.992188 -9.773438 14.609375 -8.191406 14.609375 -6.109375 C 14.609375 -4.023438 13.992188 -2.4375 12.765625 -1.34375 C 11.546875 -0.257812 9.863281 0.28125 7.71875 0.28125 C 5.570312 0.28125 3.882812 -0.257812 2.65625 -1.34375 C 1.4375 -2.425781 0.828125 -4.015625 0.828125 -6.109375 C 0.828125 -8.210938 1.4375 -9.800781 2.65625 -10.875 C 3.882812 -11.957031 5.570312 -12.5 7.71875 -12.5 Z M 7.71875 -9.375 C 6.195312 -9.375 5.4375 -8.503906 5.4375 -6.765625 L 5.4375 -5.4375 C 5.4375 -3.707031 6.195312 -2.84375 7.71875 -2.84375 C 9.238281 -2.84375 10 -3.707031 10 -5.4375 L 10 -6.765625 C 10 -8.503906 9.238281 -9.375 7.71875 -9.375 Z M 7.71875 -9.375 " />
      </g>
    </g>
  </g>
  <g fill="#000000" fill-opacity="1">
    <g transform="translate(64.169257, 113.276465)">
      <g>
        <path
          d="M 10.28125 0 L 9.890625 -1.734375 C 8.992188 -0.390625 7.695312 0.28125 6 0.28125 C 4.34375 0.28125 3.066406 -0.257812 2.171875 -1.34375 C 1.273438 -2.425781 0.828125 -4.023438 0.828125 -6.140625 C 0.828125 -8.234375 1.273438 -9.816406 2.171875 -10.890625 C 3.066406 -11.960938 4.34375 -12.5 6 -12.5 C 7.40625 -12.5 8.546875 -12.03125 9.421875 -11.09375 L 9.421875 -16.78125 L 14.03125 -16.78125 L 14.03125 0 Z M 7.4375 -9.09375 C 6.101562 -9.09375 5.4375 -8.300781 5.4375 -6.71875 L 5.4375 -5.484375 C 5.4375 -3.910156 6.101562 -3.125 7.4375 -3.125 C 8.113281 -3.125 8.617188 -3.363281 8.953125 -3.84375 C 9.296875 -4.320312 9.46875 -4.945312 9.46875 -5.71875 L 9.46875 -6.484375 C 9.46875 -7.253906 9.296875 -7.878906 8.953125 -8.359375 C 8.617188 -8.847656 8.113281 -9.09375 7.4375 -9.09375 Z M 7.4375 -9.09375 " />
      </g>
    </g>
  </g>
  <g fill="#000000" fill-opacity="1">
    <g transform="translate(79.613793, 113.276465)">
      <g>
        <path
          d="M 7.71875 -12.5 C 9.945312 -12.5 11.648438 -11.972656 12.828125 -10.921875 C 14.015625 -9.878906 14.609375 -8.273438 14.609375 -6.109375 L 14.609375 -5.328125 L 5.4375 -5.328125 C 5.4375 -4.441406 5.632812 -3.773438 6.03125 -3.328125 C 6.425781 -2.878906 7.046875 -2.65625 7.890625 -2.65625 C 8.660156 -2.65625 9.226562 -2.816406 9.59375 -3.140625 C 9.957031 -3.472656 10.140625 -3.910156 10.140625 -4.453125 L 14.609375 -4.453125 C 14.609375 -2.960938 14.046875 -1.800781 12.921875 -0.96875 C 11.796875 -0.132812 10.148438 0.28125 7.984375 0.28125 C 5.710938 0.28125 3.953125 -0.242188 2.703125 -1.296875 C 1.453125 -2.359375 0.828125 -3.960938 0.828125 -6.109375 C 0.828125 -8.210938 1.4375 -9.800781 2.65625 -10.875 C 3.882812 -11.957031 5.570312 -12.5 7.71875 -12.5 Z M 7.890625 -9.5625 C 6.441406 -9.5625 5.632812 -8.875 5.46875 -7.5 L 9.953125 -7.5 C 9.953125 -8.132812 9.769531 -8.632812 9.40625 -9 C 9.050781 -9.375 8.546875 -9.5625 7.890625 -9.5625 Z M 7.890625 -9.5625 " />
      </g>
    </g>
  </g>
  <g fill="#000000" fill-opacity="1">
    <g transform="translate(95.058329, 113.276465)">
      <g>
        <path
          d="M 7.203125 -12.5 C 8.835938 -12.5 10.222656 -12.175781 11.359375 -11.53125 C 12.492188 -10.894531 13.0625 -9.90625 13.0625 -8.5625 L 8.78125 -8.5625 C 8.78125 -9.007812 8.578125 -9.328125 8.171875 -9.515625 C 7.890625 -9.671875 7.539062 -9.75 7.125 -9.75 C 6.019531 -9.75 5.46875 -9.488281 5.46875 -8.96875 C 5.46875 -8.664062 5.660156 -8.453125 6.046875 -8.328125 C 6.429688 -8.210938 7.0625 -8.082031 7.9375 -7.9375 C 9.019531 -7.789062 9.921875 -7.609375 10.640625 -7.390625 C 11.367188 -7.179688 12.003906 -6.8125 12.546875 -6.28125 C 13.085938 -5.75 13.359375 -5.003906 13.359375 -4.046875 C 13.359375 -2.492188 12.773438 -1.382812 11.609375 -0.71875 C 10.441406 -0.0507812 8.921875 0.28125 7.046875 0.28125 C 5.960938 0.28125 4.941406 0.128906 3.984375 -0.171875 C 3.023438 -0.472656 2.242188 -0.941406 1.640625 -1.578125 C 1.035156 -2.210938 0.734375 -3.015625 0.734375 -3.984375 L 5.03125 -3.984375 L 5.03125 -3.890625 C 5.039062 -3.367188 5.257812 -3.003906 5.6875 -2.796875 C 6.113281 -2.585938 6.566406 -2.484375 7.046875 -2.484375 C 8.328125 -2.484375 8.96875 -2.78125 8.96875 -3.375 C 8.96875 -3.6875 8.765625 -3.910156 8.359375 -4.046875 C 7.953125 -4.191406 7.296875 -4.34375 6.390625 -4.5 C 5.296875 -4.675781 4.394531 -4.875 3.6875 -5.09375 C 2.988281 -5.3125 2.375 -5.675781 1.84375 -6.1875 C 1.320312 -6.707031 1.0625 -7.429688 1.0625 -8.359375 C 1.0625 -9.859375 1.628906 -10.921875 2.765625 -11.546875 C 3.898438 -12.179688 5.378906 -12.5 7.203125 -12.5 Z M 7.203125 -12.5 " />
      </g>
    </g>
  </g>
</svg>